<svg id="svg" version="1.1" xmlns="http://www.w3.org/2000/svg" xmlns:xlink="http://www.w3.org/1999/xlink" width="400" height="352.2776572668113" viewBox="0, 0, 400,352.2776572668113"><g id="svgg"><path id="path0" d="M78.607 6.520 C 78.631 9.988,78.791 12.687,78.972 12.687 C 79.150 12.687,79.295 13.961,79.295 15.518 C 79.295 17.709,79.415 18.394,79.824 18.551 C 80.162 18.681,80.352 19.224,80.352 20.055 C 80.352 20.771,80.499 21.507,80.678 21.692 C 80.857 21.876,81.055 22.502,81.118 23.084 C 81.185 23.697,81.418 24.104,81.674 24.053 C 81.959 23.996,82.115 24.399,82.115 25.198 C 82.115 25.877,82.273 26.432,82.467 26.432 C 82.661 26.432,82.819 26.891,82.819 27.451 C 82.819 28.032,83.047 28.558,83.348 28.674 C 83.639 28.785,83.877 29.278,83.877 29.769 C 83.877 30.259,84.035 30.661,84.229 30.661 C 84.423 30.661,84.581 31.057,84.581 31.542 C 84.581 32.090,84.781 32.423,85.110 32.423 C 85.460 32.423,85.639 32.773,85.639 33.459 C 85.639 34.029,85.797 34.594,85.991 34.714 C 86.185 34.833,86.344 35.171,86.344 35.464 C 86.344 35.758,86.583 36.237,86.875 36.529 C 87.168 36.822,87.328 37.189,87.232 37.345 C 87.135 37.502,87.292 37.825,87.581 38.065 C 87.870 38.304,88.106 38.877,88.106 39.338 C 88.106 39.799,88.261 40.176,88.451 40.176 C 88.642 40.176,88.897 40.573,89.018 41.057 C 89.140 41.542,89.381 41.938,89.554 41.938 C 89.726 41.938,89.868 42.335,89.868 42.819 C 89.868 43.304,90.023 43.700,90.214 43.700 C 90.404 43.700,90.658 44.096,90.780 44.579 C 90.901 45.062,91.142 45.370,91.315 45.263 C 91.488 45.156,91.630 45.291,91.630 45.564 C 91.630 46.287,92.684 48.282,93.065 48.282 C 93.245 48.282,93.392 48.678,93.392 49.163 C 93.392 49.648,93.551 50.044,93.744 50.044 C 93.938 50.044,94.097 50.361,94.097 50.749 C 94.097 51.140,94.332 51.454,94.626 51.454 C 94.954 51.454,95.154 51.787,95.154 52.335 C 95.154 52.819,95.313 53.216,95.507 53.216 C 95.700 53.216,95.859 53.538,95.859 53.932 C 95.859 54.326,96.097 54.739,96.388 54.851 C 96.678 54.962,96.916 55.276,96.916 55.549 C 96.916 56.102,97.565 57.341,98.238 58.073 C 98.480 58.337,98.678 58.779,98.678 59.056 C 98.678 59.333,98.837 59.559,99.031 59.559 C 99.225 59.559,99.383 59.797,99.383 60.088 C 99.383 60.379,99.542 60.617,99.736 60.617 C 99.930 60.617,100.088 60.934,100.088 61.322 C 100.088 61.713,100.323 62.026,100.617 62.026 C 100.917 62.026,101.145 62.342,101.145 62.756 C 101.145 63.537,101.908 64.493,102.530 64.493 C 102.738 64.493,102.907 64.890,102.907 65.374 C 102.907 65.859,103.066 66.256,103.260 66.256 C 103.454 66.256,103.612 66.493,103.612 66.784 C 103.612 67.075,103.850 67.313,104.141 67.313 C 104.432 67.313,104.675 67.590,104.681 67.930 C 104.695 68.691,105.488 69.780,106.030 69.780 C 106.390 69.780,106.601 70.520,106.465 71.304 C 106.437 71.464,106.577 71.494,106.775 71.371 C 106.974 71.248,107.137 71.323,107.137 71.538 C 107.137 71.752,107.533 72.295,108.018 72.744 C 108.502 73.194,108.899 73.873,108.899 74.254 C 108.899 74.635,109.295 75.159,109.780 75.419 C 110.264 75.678,110.661 76.173,110.661 76.518 C 110.661 76.863,110.938 77.307,111.278 77.505 C 111.617 77.702,111.736 77.869,111.542 77.875 C 111.348 77.881,111.603 78.243,112.108 78.679 C 112.613 79.115,113.140 79.828,113.277 80.264 C 113.415 80.700,113.676 81.057,113.856 81.057 C 114.037 81.057,114.185 81.227,114.185 81.435 C 114.185 81.905,115.074 82.819,115.531 82.819 C 115.718 82.819,115.973 83.227,116.098 83.725 C 116.223 84.223,116.765 85.060,117.302 85.585 C 117.839 86.110,118.387 86.823,118.520 87.169 C 118.653 87.515,118.921 87.699,119.116 87.579 C 119.312 87.458,119.471 87.686,119.471 88.085 C 119.471 88.484,119.630 88.811,119.824 88.811 C 120.018 88.811,120.176 88.980,120.176 89.188 C 120.176 89.676,121.073 90.573,121.561 90.573 C 121.768 90.573,121.938 90.969,121.938 91.454 C 121.938 92.041,122.134 92.335,122.526 92.335 C 122.849 92.335,123.017 92.431,122.900 92.548 C 122.783 92.665,123.073 93.120,123.546 93.558 C 124.019 93.996,124.405 94.447,124.405 94.560 C 124.405 94.673,124.802 95.193,125.286 95.716 C 125.771 96.239,126.167 96.882,126.167 97.144 C 126.167 97.406,126.405 97.621,126.696 97.621 C 126.987 97.621,127.225 97.763,127.225 97.937 C 127.225 98.110,127.618 98.625,128.100 99.082 C 128.581 99.538,128.977 100.199,128.981 100.549 C 128.984 100.900,129.145 101.089,129.339 100.969 C 129.533 100.849,129.692 100.999,129.692 101.301 C 129.692 101.603,129.930 101.850,130.220 101.850 C 130.511 101.850,130.749 102.016,130.749 102.219 C 130.749 102.421,131.145 102.984,131.630 103.468 C 132.115 103.953,132.511 104.524,132.511 104.738 C 132.511 104.952,133.066 105.666,133.744 106.325 C 134.423 106.984,134.978 107.674,134.978 107.858 C 134.978 108.043,135.120 108.194,135.293 108.194 C 135.467 108.194,135.982 108.588,136.439 109.069 C 136.895 109.550,137.546 109.947,137.885 109.950 C 138.225 109.953,138.502 110.115,138.502 110.308 C 138.502 110.924,144.097 110.731,145.608 110.064 C 146.352 109.736,146.960 109.340,146.960 109.183 C 146.960 109.027,147.180 108.899,147.449 108.899 C 147.717 108.899,148.198 108.350,148.516 107.680 C 148.834 107.010,149.248 106.366,149.437 106.250 C 149.812 106.018,149.940 6.467,149.567 5.493 C 149.449 5.188,149.211 5.026,149.038 5.133 C 148.864 5.240,148.722 5.069,148.722 4.753 C 148.722 4.103,147.907 3.172,147.338 3.172 C 147.130 3.172,146.960 2.991,146.960 2.770 C 146.960 2.279,145.899 1.436,145.261 1.421 C 145.005 1.415,144.558 1.172,144.267 0.881 C 143.805 0.419,139.648 0.352,111.151 0.352 L 78.564 0.352 78.607 6.520 M150.015 172.217 C 149.619 172.613,149.735 228.301,150.132 228.546 C 150.366 228.691,150.485 219.211,150.485 200.373 C 150.485 184.758,150.432 171.982,150.367 171.982 C 150.302 171.982,150.144 172.088,150.015 172.217 M22.506 288.251 L 21.674 288.924 21.577 307.123 L 21.479 325.322 22.519 326.361 C 24.016 327.859,26.230 327.841,27.687 326.321 L 28.722 325.241 28.899 312.195 L 29.075 299.148 33.351 302.261 C 38.674 306.136,48.200 313.110,55.154 318.224 C 73.334 331.591,72.252 332.280,72.238 307.352 C 72.228 288.928,72.032 287.930,68.429 287.930 C 64.735 287.930,64.493 288.891,64.493 303.601 C 64.493 311.030,64.363 315.771,64.159 315.771 C 63.976 315.771,62.488 314.780,60.853 313.568 C 59.218 312.357,55.385 309.542,52.334 307.313 C 49.283 305.084,45.138 302.041,43.124 300.551 C 36.418 295.591,27.113 288.819,26.150 288.196 C 24.907 287.392,23.541 287.413,22.506 288.251 M12.760 288.299 C 10.999 289.005,10.925 289.786,10.925 307.665 C 10.925 325.325,10.997 326.144,12.634 327.020 C 14.074 327.791,16.073 327.485,17.242 326.317 L 18.326 325.232 18.326 307.893 C 18.326 289.365,18.362 289.779,16.621 288.370 C 15.994 287.862,13.941 287.824,12.760 288.299 " stroke="none" fill="#ccdb2c" fill-rule="evenodd"></path><path id="path1" d="M259.863 0.881 C 259.752 1.172,259.369 1.410,259.014 1.410 C 258.658 1.410,258.270 1.568,258.150 1.762 C 258.030 1.956,257.624 2.115,257.248 2.115 C 256.872 2.115,256.564 2.352,256.564 2.643 C 256.564 2.934,256.394 3.172,256.186 3.172 C 255.698 3.172,254.802 4.068,254.802 4.556 C 254.802 4.764,254.604 4.935,254.361 4.937 C 253.950 4.939,253.040 6.459,253.040 7.144 C 253.040 7.313,252.802 7.689,252.511 7.980 C 252.045 8.446,251.982 16.925,251.982 80.025 C 251.982 127.468,251.864 151.542,251.630 151.542 C 251.436 151.542,251.278 151.304,251.278 151.013 C 251.278 150.722,251.040 150.485,250.749 150.485 C 250.455 150.485,250.220 150.171,250.220 149.780 C 250.220 149.392,250.062 149.075,249.868 149.075 C 249.674 149.075,249.515 148.837,249.515 148.546 C 249.515 148.256,249.307 148.018,249.053 148.018 C 248.798 148.018,248.372 147.463,248.106 146.784 C 247.840 146.106,247.413 145.551,247.159 145.551 C 246.904 145.551,246.696 145.313,246.696 145.022 C 246.696 144.731,246.537 144.493,246.344 144.493 C 246.150 144.493,245.991 144.198,245.991 143.838 C 245.991 143.477,245.595 142.885,245.110 142.521 C 244.626 142.157,244.229 141.659,244.229 141.414 C 244.229 141.169,244.081 140.969,243.900 140.969 C 243.720 140.969,243.483 140.692,243.376 140.352 C 243.268 140.013,242.626 139.101,241.949 138.326 C 241.272 137.551,240.715 136.718,240.712 136.476 C 240.708 136.233,240.546 136.035,240.352 136.035 C 240.159 136.035,240.000 135.797,240.000 135.507 C 240.000 135.216,239.762 134.978,239.471 134.978 C 239.181 134.978,238.938 134.700,238.932 134.361 C 238.918 133.600,238.124 132.511,237.582 132.511 C 237.361 132.511,237.181 132.273,237.181 131.982 C 237.181 131.692,237.022 131.454,236.828 131.454 C 236.634 131.454,236.476 131.159,236.476 130.798 C 236.476 130.438,236.079 129.845,235.595 129.481 C 235.110 129.117,234.714 128.619,234.714 128.375 C 234.714 128.130,234.563 127.930,234.378 127.930 C 234.193 127.930,233.778 127.374,233.457 126.696 C 233.135 126.018,232.767 125.463,232.639 125.463 C 232.511 125.463,232.108 124.907,231.743 124.229 C 231.377 123.551,230.945 122.996,230.782 122.996 C 230.618 122.996,230.485 122.758,230.485 122.467 C 230.485 122.176,230.247 121.938,229.956 121.938 C 229.665 121.938,229.422 121.661,229.416 121.322 C 229.402 120.560,228.608 119.471,228.067 119.471 C 227.846 119.471,227.665 119.233,227.665 118.943 C 227.665 118.652,227.507 118.414,227.313 118.414 C 227.119 118.414,226.960 118.119,226.960 117.759 C 226.960 117.398,226.564 116.805,226.079 116.441 C 225.595 116.078,225.198 115.597,225.198 115.373 C 225.198 115.149,224.960 114.874,224.670 114.762 C 224.379 114.651,224.141 114.317,224.141 114.020 C 224.141 113.723,223.982 113.480,223.789 113.480 C 223.595 113.480,223.436 113.242,223.436 112.952 C 223.436 112.661,223.198 112.423,222.907 112.423 C 222.617 112.423,222.379 112.128,222.379 111.767 C 222.379 111.407,221.824 110.523,221.145 109.804 C 220.467 109.085,219.907 108.309,219.901 108.081 C 219.885 107.484,219.024 106.432,218.551 106.432 C 218.331 106.432,218.150 106.194,218.150 105.903 C 218.150 105.612,217.991 105.374,217.797 105.374 C 217.604 105.374,217.445 105.079,217.445 104.719 C 217.445 104.358,217.048 103.766,216.564 103.402 C 216.079 103.038,215.683 102.578,215.683 102.380 C 215.683 102.181,215.286 101.592,214.802 101.069 C 214.317 100.546,213.921 99.953,213.921 99.751 C 213.921 99.549,213.683 99.383,213.392 99.383 C 213.101 99.383,212.858 99.106,212.852 98.767 C 212.838 98.005,212.045 96.916,211.503 96.916 C 211.282 96.916,211.101 96.678,211.101 96.388 C 211.101 96.097,210.943 95.859,210.749 95.859 C 210.555 95.859,210.396 95.553,210.396 95.180 C 210.396 94.806,210.000 94.189,209.515 93.807 C 209.031 93.426,208.634 92.939,208.634 92.725 C 208.634 92.510,208.476 92.335,208.282 92.335 C 208.088 92.335,207.930 92.089,207.930 91.789 C 207.930 91.489,207.533 90.876,207.048 90.427 C 206.564 89.978,206.167 89.438,206.167 89.227 C 206.167 89.015,205.771 88.446,205.286 87.962 C 204.802 87.477,204.405 86.915,204.405 86.712 C 204.405 86.509,204.167 86.344,203.877 86.344 C 203.577 86.344,203.348 86.028,203.348 85.614 C 203.348 84.833,202.585 83.877,201.963 83.877 C 201.756 83.877,201.586 83.639,201.586 83.348 C 201.586 83.057,201.427 82.819,201.233 82.819 C 201.040 82.819,200.881 82.524,200.881 82.164 C 200.881 81.803,200.485 81.211,200.000 80.847 C 199.515 80.483,199.118 79.945,199.116 79.652 C 199.114 79.359,198.559 78.535,197.882 77.821 C 197.206 77.107,196.652 76.361,196.652 76.163 C 196.652 75.965,196.256 75.406,195.771 74.922 C 195.286 74.437,194.890 73.875,194.890 73.672 C 194.890 73.470,194.652 73.304,194.361 73.304 C 194.061 73.304,193.833 72.988,193.833 72.574 C 193.833 71.830,193.078 70.837,192.514 70.837 C 192.342 70.837,191.984 70.282,191.718 69.603 C 191.452 68.925,190.867 68.094,190.419 67.758 C 189.970 67.421,189.604 66.888,189.604 66.574 C 189.604 66.259,189.207 65.704,188.722 65.340 C 188.238 64.976,187.841 64.478,187.841 64.234 C 187.841 63.989,187.694 63.789,187.513 63.789 C 187.332 63.789,187.071 63.432,186.934 62.996 C 186.796 62.559,186.389 61.946,186.029 61.633 C 185.669 61.319,185.374 60.883,185.374 60.664 C 185.374 60.444,185.137 60.264,184.846 60.264 C 184.555 60.264,184.312 59.987,184.306 59.648 C 184.292 58.886,183.498 57.797,182.957 57.797 C 182.736 57.797,182.555 57.492,182.555 57.119 C 182.555 56.380,178.362 51.806,177.685 51.806 C 177.456 51.806,177.269 51.568,177.269 51.278 C 177.269 50.874,176.826 50.749,175.401 50.749 C 174.374 50.749,173.361 50.576,173.150 50.366 C 172.874 50.090,172.701 50.090,172.530 50.366 C 172.400 50.576,171.510 50.749,170.552 50.749 C 169.239 50.749,168.811 50.879,168.811 51.278 C 168.811 51.577,168.495 51.806,168.081 51.806 C 167.300 51.806,166.344 52.569,166.344 53.191 C 166.344 53.398,166.106 53.568,165.815 53.568 C 165.521 53.568,165.286 53.882,165.286 54.273 C 165.286 54.661,165.128 54.978,164.934 54.978 C 164.740 54.978,164.581 55.379,164.581 55.870 C 164.581 56.361,164.344 56.853,164.053 56.965 C 163.587 57.144,163.524 61.889,163.524 96.728 L 163.524 136.289 164.405 136.951 C 164.890 137.314,165.286 137.897,165.286 138.244 C 165.286 138.592,165.524 138.968,165.815 139.080 C 166.106 139.191,166.344 139.445,166.344 139.644 C 166.344 139.843,166.638 140.262,166.998 140.575 C 167.358 140.889,167.765 141.502,167.903 141.938 C 168.041 142.374,168.301 142.731,168.482 142.731 C 168.663 142.731,168.811 142.901,168.811 143.109 C 168.811 143.597,169.707 144.493,170.195 144.493 C 170.403 144.493,170.573 144.822,170.573 145.223 C 170.573 146.004,171.335 146.960,171.957 146.960 C 172.165 146.960,172.335 147.198,172.335 147.489 C 172.335 147.780,172.503 148.018,172.708 148.018 C 172.913 148.018,172.985 148.174,172.867 148.365 C 172.749 148.556,173.136 149.185,173.727 149.763 C 174.318 150.340,174.802 151.061,174.802 151.365 C 174.802 151.668,175.040 152.008,175.330 152.119 C 175.621 152.231,175.859 152.475,175.859 152.662 C 175.859 153.119,176.774 154.009,177.244 154.009 C 177.451 154.009,177.621 154.324,177.621 154.710 C 177.621 155.409,178.302 156.430,179.471 157.486 C 179.811 157.792,180.088 158.256,180.088 158.518 C 180.088 159.086,180.942 160.000,181.473 160.000 C 181.680 160.000,181.850 160.304,181.850 160.675 C 181.850 161.046,182.405 161.921,183.084 162.619 C 183.762 163.318,184.317 164.129,184.317 164.423 C 184.317 164.716,184.555 165.047,184.846 165.159 C 185.137 165.270,185.374 165.515,185.374 165.702 C 185.374 166.159,186.289 167.048,186.759 167.048 C 186.967 167.048,187.137 167.410,187.137 167.852 C 187.137 168.294,187.464 168.888,187.863 169.173 C 188.263 169.458,188.852 170.247,189.172 170.925 C 189.835 172.333,190.442 173.040,190.988 173.040 C 191.196 173.040,191.366 173.378,191.366 173.791 C 191.366 174.204,191.921 175.066,192.599 175.706 C 193.278 176.345,193.833 177.122,193.833 177.432 C 193.833 177.742,194.070 178.087,194.361 178.199 C 194.652 178.310,194.890 178.585,194.890 178.809 C 194.890 179.033,195.286 179.514,195.771 179.878 C 196.256 180.242,196.652 180.766,196.652 181.044 C 196.652 181.636,197.494 182.555,198.037 182.555 C 198.376 182.555,198.580 183.313,198.447 184.079 C 198.419 184.239,198.559 184.269,198.758 184.146 C 198.960 184.022,199.119 184.243,199.119 184.649 C 199.119 185.048,199.289 185.374,199.497 185.374 C 200.075 185.374,200.881 186.310,200.881 186.982 C 200.881 187.312,201.436 188.105,202.115 188.745 C 202.793 189.385,203.348 190.162,203.348 190.472 C 203.348 190.782,203.566 191.119,203.832 191.221 C 204.099 191.323,204.610 191.953,204.970 192.620 C 205.329 193.287,205.745 193.833,205.895 193.833 C 206.045 193.833,206.167 194.003,206.167 194.210 C 206.167 194.698,207.064 195.595,207.552 195.595 C 207.760 195.595,207.930 195.991,207.930 196.476 C 207.930 196.960,208.088 197.357,208.282 197.357 C 208.476 197.357,208.634 197.595,208.634 197.885 C 208.634 198.176,208.804 198.414,209.012 198.414 C 209.634 198.414,210.396 199.371,210.396 200.151 C 210.396 200.565,210.625 200.881,210.925 200.881 C 211.216 200.881,211.454 201.119,211.454 201.410 C 211.454 201.700,211.602 201.938,211.782 201.938 C 211.963 201.938,212.206 202.237,212.322 202.602 C 212.438 202.967,212.987 203.741,213.542 204.322 C 214.097 204.903,214.658 205.715,214.788 206.125 C 214.919 206.536,215.173 206.872,215.354 206.872 C 215.535 206.872,215.683 207.042,215.683 207.250 C 215.683 207.738,216.579 208.634,217.067 208.634 C 217.275 208.634,217.445 209.031,217.445 209.515 C 217.445 210.000,217.604 210.396,217.797 210.396 C 217.991 210.396,218.150 210.634,218.150 210.925 C 218.150 211.216,218.320 211.454,218.527 211.454 C 219.149 211.454,219.912 212.410,219.912 213.191 C 219.912 213.605,220.141 213.921,220.441 213.921 C 220.731 213.921,220.969 214.091,220.969 214.298 C 220.969 214.506,221.167 214.897,221.410 215.167 C 222.384 216.254,222.731 216.721,222.731 216.948 C 222.731 217.079,223.026 217.443,223.386 217.756 C 223.746 218.070,224.153 218.683,224.291 219.119 C 224.428 219.555,224.689 219.912,224.870 219.912 C 225.050 219.912,225.198 220.082,225.198 220.289 C 225.198 220.777,226.095 221.674,226.583 221.674 C 226.790 221.674,226.960 222.012,226.960 222.425 C 226.960 222.839,227.521 223.705,228.206 224.351 C 228.891 224.997,229.446 225.611,229.439 225.714 C 229.380 226.653,229.498 226.960,229.916 226.960 C 230.184 226.960,230.668 227.515,230.990 228.194 C 231.312 228.872,231.726 229.427,231.911 229.427 C 232.096 229.427,232.247 229.597,232.247 229.805 C 232.247 230.293,233.143 231.189,233.631 231.189 C 233.839 231.189,234.009 231.586,234.009 232.070 C 234.009 232.555,234.167 232.952,234.361 232.952 C 234.555 232.952,234.714 233.121,234.714 233.329 C 234.714 233.817,235.610 234.714,236.098 234.714 C 236.306 234.714,236.476 235.052,236.476 235.466 C 236.476 235.880,236.844 236.560,237.294 236.977 C 237.744 237.394,238.338 238.245,238.614 238.868 C 238.889 239.491,239.246 240.000,239.406 240.000 C 239.899 240.000,240.705 240.975,240.705 241.572 C 240.705 241.882,240.943 242.228,241.233 242.340 C 241.524 242.451,241.762 242.695,241.762 242.882 C 241.762 243.340,242.677 244.229,243.147 244.229 C 243.354 244.229,243.524 244.558,243.524 244.961 C 243.524 245.831,245.340 247.753,246.161 247.753 C 246.478 247.753,246.647 247.900,246.536 248.080 C 246.424 248.260,246.653 248.509,247.043 248.633 C 247.434 248.757,247.753 249.006,247.753 249.187 C 247.753 249.368,248.150 249.515,248.634 249.515 C 249.183 249.515,249.515 249.715,249.515 250.044 C 249.515 250.373,249.848 250.573,250.396 250.573 C 250.881 250.573,251.278 250.731,251.278 250.925 C 251.278 251.119,251.823 251.278,252.490 251.278 C 253.157 251.278,253.801 251.436,253.921 251.630 C 254.222 252.117,309.075 252.117,309.075 251.630 C 309.075 251.436,309.551 251.278,310.132 251.278 C 310.714 251.278,311.189 251.119,311.189 250.925 C 311.189 250.731,311.450 250.573,311.768 250.573 C 312.389 250.573,314.361 248.699,314.361 248.109 C 314.361 247.913,314.531 247.753,314.739 247.753 C 315.209 247.753,316.123 246.864,316.123 246.406 C 316.123 246.220,316.361 245.975,316.652 245.864 C 316.961 245.745,317.181 245.217,317.181 244.593 C 317.181 244.005,317.339 243.524,317.533 243.524 C 317.767 243.524,317.885 204.112,317.885 125.991 C 317.885 47.871,317.767 8.458,317.533 8.458 C 317.339 8.458,317.181 8.062,317.181 7.577 C 317.181 7.029,316.981 6.696,316.652 6.696 C 316.323 6.696,316.123 6.363,316.123 5.815 C 316.123 5.330,315.965 4.934,315.771 4.934 C 315.577 4.934,315.419 4.696,315.419 4.405 C 315.419 4.115,315.253 3.877,315.050 3.877 C 314.847 3.877,314.285 3.480,313.801 2.996 C 313.316 2.511,312.689 2.115,312.407 2.115 C 312.125 2.115,311.894 1.956,311.894 1.762 C 311.894 1.568,311.515 1.410,311.051 1.410 C 310.587 1.410,310.116 1.172,310.005 0.881 C 309.827 0.418,306.714 0.352,284.934 0.352 C 263.154 0.352,260.041 0.418,259.863 0.881 M149.780 56.035 C 149.780 87.926,149.898 103.933,150.132 103.789 C 150.364 103.645,150.485 87.345,150.485 56.035 C 150.485 24.725,150.364 8.425,150.132 8.282 C 149.898 8.137,149.780 24.144,149.780 56.035 M84.229 76.464 C 84.636 76.736,84.490 76.819,83.596 76.823 C 82.329 76.829,79.295 79.401,79.295 80.469 C 79.295 80.770,79.137 81.114,78.943 81.233 C 78.709 81.378,78.590 108.778,78.590 162.291 C 78.590 215.804,78.709 243.204,78.943 243.348 C 79.137 243.468,79.295 243.953,79.295 244.426 C 79.295 244.956,79.498 245.286,79.824 245.286 C 80.124 245.286,80.352 245.602,80.352 246.016 C 80.352 246.797,81.115 247.753,81.737 247.753 C 81.945 247.753,82.115 247.923,82.115 248.131 C 82.115 248.601,83.004 249.515,83.461 249.515 C 83.648 249.515,83.893 249.753,84.004 250.044 C 84.116 250.335,84.529 250.573,84.923 250.573 C 85.317 250.573,85.639 250.731,85.639 250.925 C 85.639 251.119,86.026 251.278,86.499 251.278 C 86.972 251.278,87.457 251.436,87.577 251.630 C 87.719 251.860,97.037 251.982,114.382 251.982 C 131.872 251.982,140.969 251.862,140.969 251.630 C 140.969 251.436,141.524 251.278,142.203 251.278 C 142.881 251.278,143.436 251.136,143.436 250.963 C 143.436 250.790,143.833 250.550,144.317 250.428 C 144.802 250.306,145.198 250.051,145.198 249.861 C 145.198 249.671,145.368 249.515,145.576 249.515 C 146.064 249.515,146.960 248.619,146.960 248.131 C 146.960 247.923,147.198 247.753,147.489 247.753 C 147.780 247.753,148.018 247.513,148.018 247.220 C 148.018 246.634,148.650 245.407,149.339 244.658 C 149.581 244.394,149.780 243.565,149.780 242.815 C 149.780 242.065,149.938 241.353,150.132 241.233 C 150.345 241.102,150.485 238.594,150.485 234.890 C 150.485 231.186,150.345 228.678,150.132 228.546 C 149.902 228.404,149.780 218.623,149.780 200.352 C 149.780 182.082,149.902 172.301,150.132 172.159 C 150.845 171.718,150.588 142.474,149.868 142.055 C 149.529 141.857,149.380 141.691,149.537 141.685 C 149.695 141.679,148.228 140.075,146.278 138.120 C 144.327 136.166,142.731 134.364,142.731 134.117 C 142.731 133.869,142.335 133.369,141.850 133.005 C 141.366 132.641,140.969 132.143,140.969 131.899 C 140.969 131.654,140.722 131.454,140.420 131.454 C 140.118 131.454,139.968 131.295,140.088 131.101 C 140.208 130.907,140.059 130.749,139.756 130.749 C 139.454 130.749,139.207 130.579,139.207 130.371 C 139.207 130.164,138.980 129.767,138.704 129.490 C 138.427 129.213,138.030 128.987,137.823 128.987 C 137.615 128.987,137.445 128.817,137.445 128.609 C 137.445 128.402,137.218 128.005,136.941 127.728 C 136.665 127.451,136.268 127.225,136.060 127.225 C 135.853 127.225,135.678 126.947,135.672 126.608 C 135.658 125.846,134.864 124.758,134.322 124.758 C 134.101 124.758,133.921 124.588,133.921 124.380 C 133.921 124.172,133.694 123.776,133.417 123.499 C 133.140 123.222,132.744 122.996,132.536 122.996 C 132.329 122.996,132.159 122.823,132.159 122.612 C 132.159 122.401,131.445 121.534,130.573 120.687 C 129.700 119.839,128.987 118.981,128.987 118.780 C 128.987 118.579,128.749 118.414,128.458 118.414 C 128.167 118.414,127.930 118.249,127.930 118.047 C 127.930 117.845,127.768 117.488,127.570 117.254 C 126.017 115.414,125.463 114.677,125.463 114.449 C 125.463 114.304,125.251 114.185,124.993 114.185 C 124.735 114.185,124.312 113.789,124.053 113.304 C 123.794 112.819,123.438 112.423,123.263 112.423 C 122.824 112.423,121.938 111.498,121.938 111.038 C 121.938 110.831,121.768 110.661,121.561 110.661 C 121.023 110.661,120.311 109.878,120.023 108.970 C 119.887 108.543,119.558 108.194,119.292 108.194 C 119.026 108.194,118.695 108.011,118.557 107.787 C 118.386 107.511,118.464 107.476,118.800 107.678 C 119.647 108.189,118.486 106.862,115.154 103.512 C 113.458 101.807,112.070 100.250,112.070 100.053 C 112.070 99.856,111.912 99.792,111.718 99.912 C 111.524 100.032,111.366 99.862,111.366 99.534 C 111.366 99.206,110.811 98.414,110.132 97.775 C 109.454 97.135,108.899 96.442,108.899 96.235 C 108.899 96.028,108.729 95.859,108.521 95.859 C 108.110 95.859,107.137 94.991,107.137 94.626 C 107.137 94.260,106.163 93.392,105.752 93.392 C 105.544 93.392,105.374 93.235,105.374 93.044 C 105.374 92.438,104.208 91.304,103.814 91.528 C 103.606 91.646,103.554 91.613,103.697 91.455 C 103.841 91.296,103.782 90.953,103.566 90.693 C 103.350 90.433,103.284 90.220,103.418 90.220 C 103.553 90.220,103.425 89.982,103.134 89.692 C 102.843 89.401,102.435 89.163,102.228 89.163 C 102.020 89.163,101.850 88.993,101.850 88.785 C 101.850 88.297,100.954 87.401,100.466 87.401 C 100.258 87.401,100.088 87.231,100.088 87.023 C 100.088 86.535,99.192 85.639,98.704 85.639 C 98.496 85.639,98.326 85.473,98.326 85.270 C 98.326 85.068,97.930 84.505,97.445 84.021 C 96.960 83.536,96.564 82.979,96.564 82.783 C 96.564 82.586,96.405 82.523,96.211 82.643 C 96.018 82.763,95.859 82.625,95.859 82.337 C 95.859 82.048,95.304 81.224,94.626 80.504 C 93.947 79.785,93.392 79.060,93.392 78.893 C 93.392 78.727,93.217 78.590,93.002 78.590 C 92.788 78.590,92.301 78.194,91.919 77.709 C 91.520 77.202,90.864 76.828,90.371 76.828 C 89.900 76.828,89.515 76.692,89.515 76.525 C 89.515 76.359,88.207 76.197,86.608 76.166 C 84.563 76.127,83.857 76.215,84.229 76.464 M37.181 265.727 C 37.061 265.921,35.783 266.079,34.340 266.079 C 32.827 266.079,31.718 266.228,31.718 266.432 C 31.718 266.626,31.193 266.784,30.552 266.784 C 29.911 266.784,29.078 267.017,28.702 267.302 C 28.325 267.586,27.661 267.824,27.225 267.830 C 26.789 267.836,26.432 268.000,26.432 268.194 C 26.432 268.388,25.951 268.546,25.363 268.546 C 24.739 268.546,24.211 268.766,24.092 269.075 C 23.981 269.366,23.510 269.604,23.046 269.604 C 22.582 269.604,22.203 269.762,22.203 269.956 C 22.203 270.150,21.880 270.308,21.487 270.308 C 21.093 270.308,20.680 270.546,20.568 270.837 C 20.456 271.128,20.144 271.366,19.874 271.366 C 19.604 271.366,19.383 271.524,19.383 271.718 C 19.383 271.912,19.066 272.070,18.678 272.070 C 18.287 272.070,17.974 272.305,17.974 272.599 C 17.974 272.890,17.736 273.128,17.445 273.128 C 17.154 273.128,16.916 273.286,16.916 273.480 C 16.916 273.674,16.621 273.833,16.261 273.833 C 15.900 273.833,15.308 274.229,14.944 274.714 C 14.580 275.198,14.082 275.595,13.837 275.595 C 13.592 275.595,13.392 275.765,13.392 275.972 C 13.392 276.383,12.525 277.357,12.159 277.357 C 11.793 277.357,10.925 278.331,10.925 278.741 C 10.925 278.949,10.755 279.119,10.548 279.119 C 10.130 279.119,9.163 279.989,9.163 280.365 C 9.163 280.496,8.767 280.915,8.282 281.296 C 7.797 281.678,7.401 282.223,7.401 282.509 C 7.401 282.795,7.004 283.397,6.520 283.846 C 6.035 284.295,5.639 285.001,5.639 285.415 C 5.639 285.829,5.499 286.167,5.327 286.167 C 5.156 286.167,4.911 286.445,4.783 286.784 C 4.346 287.943,3.710 288.987,3.441 288.987 C 3.293 288.987,3.172 289.446,3.172 290.006 C 3.172 290.588,2.945 291.113,2.643 291.229 C 2.352 291.340,2.115 291.833,2.115 292.324 C 2.115 292.814,1.956 293.216,1.762 293.216 C 1.568 293.216,1.410 293.703,1.410 294.298 C 1.410 294.894,1.187 295.604,0.915 295.876 C -0.274 297.065,-0.353 318.344,0.829 319.005 C 1.190 319.207,1.410 319.782,1.410 320.525 C 1.410 321.183,1.568 321.819,1.762 321.938 C 1.956 322.058,2.115 322.623,2.115 323.193 C 2.115 323.879,2.293 324.229,2.643 324.229 C 2.972 324.229,3.172 324.562,3.172 325.110 C 3.172 325.595,3.330 325.991,3.524 325.991 C 3.718 325.991,3.877 326.388,3.877 326.872 C 3.877 327.420,4.076 327.753,4.405 327.753 C 4.734 327.753,4.934 328.086,4.934 328.634 C 4.934 329.119,5.093 329.515,5.286 329.515 C 5.480 329.515,5.639 329.715,5.639 329.960 C 5.639 330.204,6.035 330.831,6.520 331.354 C 7.004 331.876,7.401 332.397,7.401 332.511 C 7.401 332.625,7.797 333.146,8.282 333.668 C 8.767 334.191,9.163 334.750,9.163 334.911 C 9.163 335.331,10.101 336.211,10.548 336.211 C 10.755 336.211,10.925 336.381,10.925 336.589 C 10.925 337.077,11.822 337.974,12.310 337.974 C 12.517 337.974,12.687 338.143,12.687 338.351 C 12.687 338.821,13.577 339.736,14.034 339.736 C 14.221 339.736,14.465 339.974,14.577 340.264 C 14.688 340.555,15.034 340.793,15.345 340.793 C 15.987 340.793,16.916 341.612,16.916 342.177 C 16.916 342.385,17.243 342.555,17.642 342.555 C 18.041 342.555,18.270 342.714,18.150 342.907 C 18.030 343.101,18.242 343.260,18.620 343.260 C 18.998 343.260,19.399 343.498,19.511 343.789 C 19.622 344.079,20.036 344.317,20.429 344.317 C 20.823 344.317,21.145 344.476,21.145 344.670 C 21.145 344.863,21.542 345.022,22.026 345.022 C 22.511 345.022,22.907 345.178,22.907 345.368 C 22.907 345.558,23.304 345.813,23.789 345.935 C 24.273 346.056,24.670 346.297,24.670 346.470 C 24.670 346.643,25.057 346.784,25.530 346.784 C 26.003 346.784,26.488 346.943,26.608 347.137 C 26.728 347.330,27.354 347.489,28.001 347.489 C 28.720 347.489,29.254 347.694,29.379 348.018 C 29.517 348.378,30.082 348.546,31.158 348.546 C 32.024 348.546,32.832 348.705,32.952 348.899 C 33.087 349.117,36.303 349.251,41.430 349.251 C 46.703 349.251,49.692 349.124,49.692 348.899 C 49.692 348.705,50.485 348.546,51.454 348.546 C 52.785 348.546,53.216 348.417,53.216 348.018 C 53.216 347.636,53.607 347.489,54.626 347.489 C 55.401 347.489,56.035 347.330,56.035 347.137 C 56.035 346.943,56.590 346.784,57.269 346.784 C 57.947 346.784,58.502 346.629,58.502 346.438 C 58.502 346.248,58.899 345.993,59.383 345.872 C 59.868 345.750,60.264 345.509,60.264 345.336 C 60.264 345.163,60.661 345.022,61.145 345.022 C 61.630 345.022,62.026 344.863,62.026 344.670 C 62.026 344.476,62.257 344.317,62.539 344.317 C 62.821 344.317,63.448 343.921,63.933 343.436 C 64.417 342.952,65.064 342.555,65.369 342.555 C 65.675 342.555,66.016 342.317,66.128 342.026 C 66.240 341.736,66.484 341.498,66.671 341.498 C 67.128 341.498,68.018 340.583,68.018 340.113 C 68.018 339.906,68.423 339.736,68.919 339.736 C 69.431 339.736,69.727 339.583,69.604 339.383 C 69.484 339.189,69.548 339.031,69.747 339.031 C 70.223 339.031,72.247 337.043,72.247 336.576 C 72.247 336.375,72.427 336.211,72.648 336.211 C 73.190 336.211,73.984 335.123,73.998 334.361 C 74.004 334.022,74.247 333.744,74.537 333.744 C 74.828 333.744,75.066 333.603,75.066 333.429 C 75.066 333.256,75.460 332.740,75.941 332.284 C 76.422 331.827,76.819 331.176,76.822 330.837 C 76.825 330.498,76.987 330.220,77.181 330.220 C 77.374 330.220,77.533 329.982,77.533 329.692 C 77.533 329.401,77.652 329.162,77.797 329.161 C 78.141 329.158,79.295 327.129,79.295 326.529 C 79.295 326.275,79.533 325.975,79.824 325.864 C 80.115 325.752,80.352 325.269,80.352 324.790 C 80.352 324.310,80.511 323.820,80.705 323.700 C 80.899 323.581,81.057 323.084,81.057 322.597 C 81.057 322.110,81.295 321.474,81.586 321.183 C 81.877 320.892,82.115 320.199,82.115 319.643 C 82.115 319.087,82.273 318.534,82.467 318.414 C 82.661 318.294,82.819 317.437,82.819 316.509 C 82.819 315.581,83.071 314.317,83.379 313.701 C 84.098 312.258,83.995 301.302,83.260 301.057 C 82.974 300.962,82.819 300.184,82.819 298.846 C 82.819 297.711,82.661 296.684,82.467 296.564 C 82.273 296.444,82.115 295.875,82.115 295.299 C 82.115 294.693,81.892 294.166,81.586 294.048 C 81.260 293.923,81.057 293.387,81.057 292.650 C 81.057 291.992,80.899 291.454,80.705 291.454 C 80.511 291.454,80.352 291.074,80.352 290.610 C 80.352 290.147,80.115 289.676,79.824 289.564 C 79.533 289.453,79.295 289.039,79.295 288.645 C 79.295 288.252,79.137 287.930,78.943 287.930 C 78.749 287.930,78.590 287.533,78.590 287.048 C 78.590 286.564,78.392 286.166,78.150 286.165 C 77.695 286.162,76.828 284.615,76.828 283.806 C 76.828 283.554,76.658 283.348,76.451 283.348 C 75.885 283.348,75.066 282.418,75.066 281.776 C 75.066 281.466,74.828 281.120,74.537 281.009 C 74.247 280.897,74.009 280.656,74.009 280.474 C 74.009 280.020,70.608 276.652,70.149 276.652 C 69.946 276.652,69.780 276.482,69.780 276.274 C 69.780 275.722,68.424 274.601,66.960 273.943 C 66.670 273.812,66.109 273.337,65.716 272.888 C 65.322 272.438,64.727 272.070,64.394 272.070 C 64.061 272.070,63.789 271.912,63.789 271.718 C 63.789 271.524,63.551 271.366,63.260 271.366 C 62.969 271.366,62.731 271.210,62.731 271.020 C 62.731 270.830,62.335 270.575,61.850 270.453 C 61.366 270.331,60.969 270.091,60.969 269.918 C 60.969 269.745,60.641 269.604,60.239 269.604 C 59.838 269.604,59.271 269.366,58.980 269.075 C 58.690 268.784,58.067 268.546,57.596 268.546 C 57.125 268.546,56.740 268.388,56.740 268.194 C 56.740 268.000,56.202 267.841,55.544 267.841 C 54.807 267.841,54.271 267.639,54.146 267.313 C 54.019 266.983,53.482 266.784,52.719 266.784 C 52.046 266.784,51.397 266.626,51.278 266.432 C 51.158 266.238,49.889 266.079,48.458 266.079 C 47.027 266.079,45.759 265.921,45.639 265.727 C 45.514 265.525,43.704 265.374,41.410 265.374 C 39.116 265.374,37.305 265.525,37.181 265.727 M89.390 278.590 C 89.099 278.881,88.758 279.119,88.632 279.119 C 87.909 279.119,86.344 281.284,86.344 282.284 C 86.344 282.931,86.198 283.299,85.991 283.172 C 85.770 283.035,85.639 283.814,85.639 285.266 C 85.639 286.572,85.792 287.577,85.991 287.577 C 86.185 287.577,86.344 287.906,86.344 288.309 C 86.344 289.047,88.111 291.101,88.746 291.101 C 88.934 291.101,89.179 291.339,89.290 291.630 C 89.402 291.921,89.736 292.159,90.033 292.159 C 90.330 292.159,90.573 292.317,90.573 292.511 C 90.573 292.743,101.498 292.863,122.643 292.863 C 143.789 292.863,154.714 292.743,154.714 292.511 C 154.714 292.317,155.110 292.159,155.595 292.159 C 156.143 292.159,156.476 291.959,156.476 291.630 C 156.476 291.339,156.646 291.101,156.853 291.101 C 157.341 291.101,158.238 290.205,158.238 289.717 C 158.238 289.509,158.476 289.339,158.767 289.339 C 159.095 289.339,159.295 289.006,159.295 288.458 C 159.295 287.974,159.454 287.577,159.648 287.577 C 159.843 287.577,160.000 286.637,160.000 285.463 C 160.000 284.288,159.843 283.348,159.648 283.348 C 159.454 283.348,159.295 282.793,159.295 282.115 C 159.295 281.253,159.136 280.881,158.767 280.881 C 158.476 280.881,158.238 280.711,158.238 280.503 C 158.238 279.894,157.287 279.119,156.539 279.119 C 156.158 279.119,155.755 278.881,155.643 278.590 C 155.465 278.126,151.475 278.062,122.679 278.062 C 94.028 278.062,89.852 278.128,89.390 278.590 M165.022 278.992 C 164.198 279.489,163.524 280.117,163.524 280.388 C 163.524 280.659,163.366 280.881,163.172 280.881 C 162.978 280.881,162.819 281.278,162.819 281.762 C 162.819 282.310,162.620 282.643,162.291 282.643 C 161.826 282.643,161.762 285.660,161.762 307.676 C 161.762 329.603,161.828 332.735,162.291 332.912 C 162.581 333.024,162.819 333.415,162.819 333.782 C 162.819 334.149,162.978 334.449,163.172 334.449 C 163.366 334.449,163.524 334.687,163.524 334.978 C 163.524 335.269,163.762 335.507,164.053 335.507 C 164.344 335.507,164.581 335.665,164.581 335.859 C 164.581 336.053,164.910 336.211,165.312 336.211 C 165.713 336.211,166.279 336.449,166.570 336.740 C 167.032 337.202,171.129 337.269,199.144 337.269 C 227.394 337.269,231.189 337.206,231.189 336.740 C 231.189 336.440,231.505 336.211,231.919 336.211 C 232.700 336.211,233.656 335.449,233.656 334.827 C 233.656 334.619,233.894 334.449,234.185 334.449 C 234.479 334.449,234.714 334.136,234.714 333.744 C 234.714 333.357,234.872 333.040,235.066 333.040 C 235.273 333.040,235.419 331.813,235.419 330.065 C 235.419 328.429,235.260 326.992,235.066 326.872 C 234.872 326.752,234.714 326.431,234.714 326.159 C 234.714 325.400,232.714 323.524,231.906 323.524 C 231.504 323.524,231.189 323.292,231.189 322.996 C 231.189 322.530,227.920 322.467,203.877 322.467 L 176.564 322.467 176.564 302.555 C 176.564 289.515,176.442 282.643,176.211 282.643 C 176.018 282.643,175.859 282.321,175.859 281.927 C 175.859 281.534,175.621 281.120,175.330 281.009 C 175.040 280.897,174.802 280.642,174.802 280.442 C 174.802 279.944,173.696 279.144,172.989 279.130 C 172.671 279.124,172.319 278.881,172.207 278.590 C 171.833 277.616,166.842 277.895,165.022 278.992 M248.811 278.590 C 248.569 278.881,247.836 279.119,247.182 279.119 C 246.527 279.119,245.991 279.278,245.991 279.471 C 245.991 279.665,245.669 279.824,245.275 279.824 C 244.882 279.824,244.468 280.062,244.357 280.352 C 244.245 280.643,243.923 280.881,243.642 280.881 C 243.360 280.881,243.231 281.044,243.353 281.242 C 243.476 281.441,243.446 281.581,243.286 281.553 C 242.425 281.403,241.762 281.648,241.762 282.115 C 241.762 282.405,241.592 282.643,241.385 282.643 C 240.897 282.643,240.000 283.540,240.000 284.028 C 240.000 284.235,239.830 284.405,239.622 284.405 C 239.012 284.405,238.238 285.356,238.238 286.105 C 238.238 286.485,238.000 286.888,237.709 287.000 C 237.419 287.111,237.181 287.525,237.181 287.918 C 237.181 288.312,237.022 288.634,236.828 288.634 C 236.634 288.634,236.476 289.116,236.476 289.704 C 236.476 290.292,236.198 291.197,235.859 291.715 C 234.641 293.572,234.853 324.452,236.086 324.863 C 236.300 324.934,236.476 325.376,236.476 325.844 C 236.476 326.313,236.634 326.696,236.828 326.696 C 237.022 326.696,237.181 327.018,237.181 327.412 C 237.181 327.806,237.419 328.219,237.709 328.331 C 238.000 328.442,238.238 328.754,238.238 329.024 C 238.238 329.295,238.396 329.515,238.590 329.515 C 238.784 329.515,238.943 329.717,238.943 329.964 C 238.943 330.702,241.950 333.744,242.680 333.744 C 243.052 333.744,243.655 334.141,244.019 334.626 C 244.449 335.198,245.026 335.507,245.667 335.507 C 246.210 335.507,246.752 335.665,246.872 335.859 C 246.992 336.053,247.619 336.211,248.265 336.211 C 248.984 336.211,249.519 336.416,249.643 336.740 C 249.820 337.202,252.640 337.269,272.070 337.269 C 291.501 337.269,294.321 337.202,294.498 336.740 C 294.636 336.381,295.198 336.211,296.249 336.211 C 297.101 336.211,297.797 336.053,297.797 335.859 C 297.797 335.665,298.199 335.507,298.689 335.507 C 299.180 335.507,299.673 335.269,299.784 334.978 C 299.896 334.687,300.288 334.449,300.654 334.449 C 301.021 334.449,301.322 334.291,301.322 334.097 C 301.322 333.903,301.492 333.744,301.699 333.744 C 301.907 333.744,302.303 333.518,302.580 333.241 C 302.857 332.964,303.084 332.568,303.084 332.360 C 303.084 332.152,303.254 331.982,303.461 331.982 C 303.669 331.982,304.065 331.756,304.342 331.479 C 304.619 331.202,304.846 330.806,304.846 330.598 C 304.846 330.390,305.084 330.220,305.374 330.220 C 305.665 330.220,305.903 329.980,305.903 329.687 C 305.903 329.101,306.536 327.874,307.225 327.125 C 307.467 326.861,307.665 326.261,307.665 325.790 C 307.665 325.319,307.824 324.934,308.018 324.934 C 308.211 324.934,308.370 324.141,308.370 323.172 C 308.370 321.840,308.499 321.410,308.899 321.410 C 309.360 321.410,309.427 319.650,309.427 307.690 C 309.427 295.965,309.350 293.894,308.899 293.442 C 308.608 293.152,308.370 292.347,308.370 291.655 C 308.370 290.963,308.211 290.396,308.018 290.396 C 307.824 290.396,307.665 289.916,307.665 289.328 C 307.665 288.704,307.446 288.176,307.137 288.057 C 306.846 287.945,306.608 287.633,306.608 287.363 C 306.608 287.093,306.449 286.872,306.256 286.872 C 306.062 286.872,305.903 286.577,305.903 286.217 C 305.903 285.856,305.507 285.264,305.022 284.900 C 304.537 284.536,304.141 284.038,304.141 283.793 C 304.141 283.548,303.971 283.348,303.763 283.348 C 303.275 283.348,302.379 282.451,302.379 281.963 C 302.379 281.756,302.052 281.586,301.653 281.586 C 301.254 281.586,301.026 281.427,301.145 281.233 C 301.265 281.040,301.054 280.881,300.675 280.881 C 300.297 280.881,299.896 280.643,299.784 280.352 C 299.673 280.062,299.180 279.824,298.689 279.824 C 298.199 279.824,297.797 279.665,297.797 279.471 C 297.797 279.278,297.101 279.119,296.249 279.119 C 295.198 279.119,294.636 278.949,294.498 278.590 C 294.321 278.128,291.468 278.062,271.772 278.062 C 252.182 278.062,249.192 278.131,248.811 278.590 M312.473 278.590 C 312.183 278.881,311.775 279.119,311.567 279.119 C 311.359 279.119,311.189 279.278,311.189 279.471 C 311.189 279.665,310.952 279.824,310.661 279.824 C 310.370 279.824,310.132 280.062,310.132 280.352 C 310.132 280.643,309.974 280.881,309.780 280.881 C 309.586 280.881,309.427 281.417,309.427 282.071 C 309.427 282.726,309.189 283.459,308.899 283.700 C 308.608 283.942,308.370 284.655,308.370 285.286 C 308.370 285.917,308.608 286.631,308.899 286.872 C 309.189 287.114,309.427 287.758,309.427 288.304 C 309.427 288.851,309.586 289.396,309.780 289.515 C 309.974 289.635,310.132 290.205,310.132 290.781 C 310.132 291.387,310.355 291.914,310.661 292.031 C 310.952 292.143,311.189 292.614,311.189 293.077 C 311.189 293.541,311.348 293.921,311.542 293.921 C 311.736 293.921,311.894 294.300,311.894 294.764 C 311.894 295.228,312.132 295.699,312.423 295.810 C 312.732 295.929,312.952 296.457,312.952 297.081 C 312.952 297.669,313.110 298.150,313.304 298.150 C 313.498 298.150,313.656 298.546,313.656 299.031 C 313.656 299.579,313.856 299.912,314.185 299.912 C 314.535 299.912,314.714 300.262,314.714 300.948 C 314.714 301.518,314.872 302.083,315.066 302.203 C 315.260 302.322,315.419 302.808,315.419 303.281 C 315.419 303.754,315.577 304.141,315.771 304.141 C 315.965 304.141,316.123 304.463,316.123 304.857 C 316.123 305.251,316.361 305.664,316.652 305.776 C 316.950 305.890,317.181 306.415,317.181 306.977 C 317.181 307.527,317.339 308.074,317.533 308.194 C 317.727 308.314,317.885 308.724,317.885 309.107 C 317.885 309.489,318.123 309.893,318.414 310.005 C 318.705 310.116,318.943 310.587,318.943 311.051 C 318.943 311.515,319.101 311.894,319.295 311.894 C 319.489 311.894,319.648 312.279,319.648 312.750 C 319.648 313.221,319.885 313.844,320.176 314.135 C 320.467 314.425,320.705 315.071,320.705 315.570 C 320.705 316.068,320.863 316.476,321.057 316.476 C 321.251 316.476,321.410 316.798,321.410 317.192 C 321.410 317.585,321.648 317.999,321.938 318.110 C 322.236 318.225,322.467 318.749,322.467 319.312 C 322.467 319.861,322.626 320.409,322.819 320.529 C 323.013 320.648,323.172 321.134,323.172 321.607 C 323.172 322.136,323.375 322.467,323.700 322.467 C 324.029 322.467,324.229 322.800,324.229 323.348 C 324.229 323.833,324.388 324.229,324.581 324.229 C 324.775 324.229,324.934 324.710,324.934 325.297 C 324.934 325.922,325.154 326.450,325.463 326.569 C 325.753 326.680,325.991 327.151,325.991 327.615 C 325.991 328.079,326.150 328.458,326.344 328.458 C 326.537 328.458,326.696 328.855,326.696 329.339 C 326.696 329.824,326.855 330.220,327.048 330.220 C 327.242 330.220,327.401 330.605,327.401 331.076 C 327.401 331.547,327.639 332.170,327.930 332.461 C 328.220 332.751,328.458 333.181,328.458 333.415 C 328.458 333.904,330.092 335.507,330.591 335.507 C 330.775 335.507,330.925 335.665,330.925 335.859 C 330.925 336.053,331.146 336.211,331.416 336.211 C 331.686 336.211,331.998 336.449,332.110 336.740 C 332.267 337.149,332.952 337.269,335.143 337.269 C 337.424 337.269,337.974 337.166,337.974 336.740 C 337.974 336.440,338.290 336.211,338.704 336.211 C 339.484 336.211,340.441 335.449,340.441 334.827 C 340.441 334.619,340.678 334.449,340.969 334.449 C 341.263 334.449,341.498 334.136,341.498 333.744 C 341.498 333.357,341.656 333.040,341.850 333.040 C 342.044 333.040,342.203 332.660,342.203 332.196 C 342.203 331.732,342.441 331.262,342.731 331.150 C 343.022 331.039,343.260 330.546,343.260 330.055 C 343.260 329.564,343.419 329.163,343.612 329.163 C 343.806 329.163,343.965 328.608,343.965 327.930 C 343.965 327.068,344.124 326.696,344.493 326.696 C 344.817 326.696,345.022 326.366,345.022 325.844 C 345.022 325.376,345.176 324.940,345.363 324.875 C 345.551 324.811,345.742 324.253,345.789 323.637 C 345.835 323.020,346.001 322.595,346.157 322.691 C 346.312 322.787,346.537 322.380,346.656 321.785 C 346.775 321.191,347.011 320.705,347.181 320.705 C 347.350 320.705,347.489 320.308,347.489 319.824 C 347.489 319.339,347.648 318.943,347.841 318.943 C 348.035 318.943,348.194 318.462,348.194 317.874 C 348.194 317.250,348.413 316.722,348.722 316.603 C 349.013 316.492,349.251 316.021,349.251 315.557 C 349.251 315.093,349.410 314.714,349.604 314.714 C 349.797 314.714,349.956 314.306,349.956 313.807 C 349.956 313.309,350.194 312.663,350.485 312.373 C 350.775 312.082,351.013 311.459,351.013 310.988 C 351.013 310.517,351.172 310.132,351.366 310.132 C 351.559 310.132,351.718 309.753,351.718 309.289 C 351.718 308.825,351.956 308.354,352.247 308.243 C 352.556 308.124,352.775 307.596,352.775 306.971 C 352.775 306.384,352.934 305.903,353.128 305.903 C 353.322 305.903,353.480 305.670,353.480 305.386 C 353.480 305.070,353.687 304.947,354.009 305.071 C 354.300 305.182,354.537 305.653,354.537 306.117 C 354.537 306.581,354.696 306.960,354.890 306.960 C 355.084 306.960,355.242 307.337,355.242 307.798 C 355.242 308.259,355.480 308.834,355.771 309.075 C 356.062 309.316,356.300 309.891,356.300 310.352 C 356.300 310.812,356.458 311.189,356.652 311.189 C 356.846 311.189,357.004 311.586,357.004 312.070 C 357.004 312.619,357.204 312.952,357.533 312.952 C 357.862 312.952,358.062 313.284,358.062 313.833 C 358.062 314.317,358.220 314.714,358.414 314.714 C 358.608 314.714,358.767 315.194,358.767 315.782 C 358.767 316.407,358.986 316.935,359.295 317.053 C 359.586 317.165,359.824 317.636,359.824 318.099 C 359.824 318.563,359.982 318.943,360.176 318.943 C 360.370 318.943,360.529 319.339,360.529 319.824 C 360.529 320.308,360.687 320.705,360.881 320.705 C 361.075 320.705,361.233 321.027,361.233 321.421 C 361.233 321.815,361.471 322.228,361.762 322.340 C 362.053 322.451,362.291 322.869,362.291 323.267 C 362.291 324.166,363.381 326.696,363.768 326.696 C 363.925 326.696,364.053 327.093,364.053 327.577 C 364.053 328.062,364.211 328.458,364.405 328.458 C 364.599 328.458,364.758 328.855,364.758 329.339 C 364.758 329.887,364.957 330.220,365.286 330.220 C 365.656 330.220,365.815 330.592,365.815 331.454 C 365.815 332.132,365.974 332.687,366.167 332.687 C 366.361 332.687,366.520 332.925,366.520 333.216 C 366.520 333.507,366.758 333.744,367.048 333.744 C 367.339 333.744,367.577 334.037,367.577 334.395 C 367.577 335.181,368.643 336.211,369.455 336.211 C 369.779 336.211,370.044 336.449,370.044 336.740 C 370.044 337.163,370.573 337.269,372.687 337.269 C 374.802 337.269,375.330 337.163,375.330 336.740 C 375.330 336.440,375.646 336.211,376.060 336.211 C 376.841 336.211,377.797 335.449,377.797 334.827 C 377.797 334.619,377.967 334.449,378.175 334.449 C 378.586 334.449,379.559 333.582,379.559 333.216 C 379.559 333.091,379.797 332.751,380.088 332.461 C 380.379 332.170,380.617 331.547,380.617 331.076 C 380.617 330.605,380.775 330.220,380.969 330.220 C 381.163 330.220,381.322 329.832,381.322 329.358 C 381.322 328.884,381.718 327.750,382.203 326.838 C 382.687 325.927,383.084 324.729,383.084 324.177 C 383.084 323.624,383.242 323.172,383.436 323.172 C 383.630 323.172,383.789 322.792,383.789 322.328 C 383.789 321.865,384.026 321.394,384.317 321.282 C 384.626 321.164,384.846 320.636,384.846 320.011 C 384.846 319.423,385.004 318.943,385.198 318.943 C 385.392 318.943,385.551 318.388,385.551 317.709 C 385.551 316.893,385.716 316.476,386.039 316.476 C 386.497 316.476,386.705 315.856,387.192 313.040 C 387.304 312.391,387.603 311.894,387.880 311.894 C 388.165 311.894,388.370 311.534,388.370 311.034 C 388.370 310.561,388.529 310.076,388.722 309.956 C 388.916 309.836,389.075 309.289,389.075 308.739 C 389.075 308.177,389.306 307.652,389.604 307.538 C 389.913 307.419,390.132 306.891,390.132 306.267 C 390.132 305.679,390.291 305.198,390.485 305.198 C 390.678 305.198,390.842 304.841,390.848 304.405 C 390.854 303.969,391.092 303.304,391.377 302.928 C 391.661 302.552,391.894 301.878,391.894 301.430 C 391.894 300.983,392.053 300.617,392.247 300.617 C 392.441 300.617,392.599 300.233,392.599 299.764 C 392.599 299.026,393.483 296.912,394.010 296.388 C 394.108 296.291,394.242 295.736,394.308 295.154 C 394.374 294.573,394.572 294.044,394.747 293.979 C 394.923 293.915,395.066 293.416,395.066 292.872 C 395.066 292.317,395.298 291.792,395.595 291.679 C 395.904 291.560,396.123 291.032,396.123 290.408 C 396.123 289.820,396.282 289.339,396.476 289.339 C 396.688 289.339,396.828 287.862,396.828 285.614 C 396.828 281.920,396.524 280.881,395.444 280.881 C 395.236 280.881,395.066 280.711,395.066 280.503 C 395.066 280.033,394.177 279.119,393.719 279.119 C 393.532 279.119,393.288 278.881,393.177 278.590 C 393.018 278.177,392.313 278.062,389.956 278.062 C 387.599 278.062,386.894 278.177,386.735 278.590 C 386.624 278.881,386.268 279.119,385.944 279.119 C 384.951 279.119,383.084 281.743,383.084 283.139 C 383.084 283.619,382.925 284.109,382.731 284.229 C 382.537 284.349,382.379 284.834,382.379 285.307 C 382.379 285.837,382.176 286.167,381.850 286.167 C 381.481 286.167,381.322 286.539,381.322 287.401 C 381.322 288.079,381.163 288.634,380.969 288.634 C 380.775 288.634,380.617 289.014,380.617 289.478 C 380.617 289.942,380.379 290.412,380.088 290.524 C 379.779 290.643,379.559 291.171,379.559 291.795 C 379.559 292.383,379.401 292.863,379.207 292.863 C 379.013 292.863,378.855 293.240,378.855 293.701 C 378.855 294.162,378.617 294.737,378.326 294.978 C 378.035 295.219,377.797 295.873,377.797 296.431 C 377.797 296.989,377.639 297.445,377.445 297.445 C 377.251 297.445,377.093 297.773,377.093 298.175 C 377.093 298.576,376.855 299.143,376.564 299.434 C 376.273 299.724,376.035 300.347,376.035 300.818 C 376.035 301.289,375.877 301.674,375.683 301.674 C 375.489 301.674,375.330 302.082,375.330 302.580 C 375.330 303.079,375.093 303.724,374.802 304.015 C 374.511 304.306,374.273 304.840,374.273 305.203 C 374.273 305.565,374.115 305.960,373.921 306.079 C 373.727 306.199,373.568 306.732,373.568 307.263 C 373.568 307.794,373.390 308.407,373.173 308.624 C 372.577 309.220,371.806 308.757,371.806 307.804 C 371.806 307.340,371.651 306.960,371.460 306.960 C 371.270 306.960,371.015 306.564,370.894 306.079 C 370.772 305.595,370.531 305.198,370.358 305.198 C 370.185 305.198,370.044 304.802,370.044 304.317 C 370.044 303.833,369.885 303.436,369.692 303.436 C 369.498 303.436,369.339 303.051,369.339 302.580 C 369.339 302.110,369.101 301.486,368.811 301.196 C 368.520 300.905,368.282 300.339,368.282 299.937 C 368.282 299.536,368.123 299.207,367.930 299.207 C 367.736 299.207,367.577 298.811,367.577 298.326 C 367.577 297.778,367.377 297.445,367.048 297.445 C 366.720 297.445,366.520 297.112,366.520 296.564 C 366.520 296.079,366.361 295.683,366.167 295.683 C 365.974 295.683,365.815 295.202,365.815 294.614 C 365.815 293.990,365.595 293.462,365.286 293.343 C 364.996 293.232,364.758 292.770,364.758 292.318 C 364.758 291.865,364.599 291.397,364.405 291.278 C 364.211 291.158,364.053 290.769,364.053 290.413 C 364.053 290.058,363.815 289.676,363.524 289.564 C 363.233 289.453,362.996 289.049,362.996 288.666 C 362.996 288.284,362.837 287.873,362.643 287.753 C 362.449 287.634,362.291 287.064,362.291 286.488 C 362.291 285.882,362.068 285.355,361.762 285.238 C 361.471 285.126,361.233 284.655,361.233 284.191 C 361.233 283.728,361.075 283.348,360.881 283.348 C 360.687 283.348,360.529 282.969,360.529 282.505 C 360.529 282.041,360.291 281.570,360.000 281.458 C 359.709 281.347,359.471 281.037,359.471 280.771 C 359.471 280.138,358.336 279.119,357.631 279.119 C 357.328 279.119,356.989 278.881,356.877 278.590 C 356.720 278.182,356.037 278.062,353.869 278.062 C 351.845 278.062,350.916 278.209,350.535 278.590 C 350.244 278.881,349.904 279.119,349.780 279.119 C 349.414 279.119,348.546 280.093,348.546 280.503 C 348.546 280.711,348.376 280.881,348.169 280.881 C 347.539 280.881,346.784 281.842,346.784 282.643 C 346.784 283.059,346.546 283.636,346.256 283.927 C 345.965 284.218,345.727 284.841,345.727 285.312 C 345.727 285.782,345.568 286.167,345.374 286.167 C 345.181 286.167,345.022 286.547,345.022 287.011 C 345.022 287.475,344.784 287.945,344.493 288.057 C 344.184 288.176,343.965 288.704,343.965 289.328 C 343.965 289.916,343.806 290.396,343.612 290.396 C 343.419 290.396,343.260 290.776,343.260 291.240 C 343.260 291.704,343.022 292.174,342.731 292.286 C 342.441 292.398,342.203 292.802,342.203 293.184 C 342.203 293.566,342.044 293.977,341.850 294.097 C 341.656 294.217,341.498 294.764,341.498 295.313 C 341.498 295.876,341.267 296.401,340.969 296.515 C 340.678 296.627,340.441 297.040,340.441 297.434 C 340.441 297.828,340.282 298.150,340.088 298.150 C 339.894 298.150,339.736 298.688,339.736 299.346 C 339.736 300.083,339.533 300.619,339.207 300.744 C 338.916 300.856,338.678 301.260,338.678 301.642 C 338.678 302.024,338.520 302.435,338.326 302.555 C 338.132 302.675,337.974 303.160,337.974 303.633 C 337.974 304.106,337.815 304.493,337.621 304.493 C 337.427 304.493,337.269 305.048,337.269 305.727 C 337.269 306.588,337.109 306.960,336.740 306.960 C 336.411 306.960,336.211 307.293,336.211 307.841 C 336.211 308.326,336.053 308.722,335.859 308.722 C 335.665 308.722,335.507 309.119,335.507 309.604 C 335.507 310.152,335.307 310.485,334.978 310.485 C 334.610 310.485,334.449 310.115,334.449 309.272 C 334.449 308.605,334.291 307.961,334.097 307.841 C 333.903 307.722,333.744 307.311,333.744 306.928 C 333.744 306.546,333.507 306.142,333.216 306.031 C 332.925 305.919,332.687 305.448,332.687 304.984 C 332.687 304.520,332.529 304.141,332.335 304.141 C 332.141 304.141,331.982 303.764,331.982 303.303 C 331.982 302.842,331.744 302.268,331.454 302.026 C 331.163 301.785,330.925 301.211,330.925 300.750 C 330.925 300.289,330.767 299.912,330.573 299.912 C 330.379 299.912,330.220 299.515,330.220 299.031 C 330.220 298.483,330.021 298.150,329.692 298.150 C 329.366 298.150,329.163 297.819,329.163 297.290 C 329.163 296.816,329.004 296.331,328.811 296.211 C 328.617 296.092,328.458 295.602,328.458 295.122 C 328.458 294.643,328.220 294.160,327.930 294.048 C 327.639 293.937,327.401 293.466,327.401 293.002 C 327.401 292.538,327.242 292.159,327.048 292.159 C 326.855 292.159,326.696 291.762,326.696 291.278 C 326.696 290.729,326.496 290.396,326.167 290.396 C 325.798 290.396,325.639 290.024,325.639 289.163 C 325.639 288.485,325.480 287.930,325.286 287.930 C 325.093 287.930,324.934 287.533,324.934 287.048 C 324.934 286.564,324.775 286.167,324.581 286.167 C 324.388 286.167,324.229 285.845,324.229 285.451 C 324.229 285.058,323.991 284.644,323.700 284.533 C 323.410 284.421,323.172 284.081,323.172 283.776 C 323.172 282.751,322.329 280.881,321.868 280.881 C 321.616 280.881,321.410 280.711,321.410 280.503 C 321.410 280.004,320.508 279.119,320.000 279.119 C 319.778 279.119,319.359 278.881,319.069 278.590 C 318.688 278.210,317.762 278.062,315.771 278.062 C 313.779 278.062,312.853 278.210,312.473 278.590 M26.150 288.196 C 27.113 288.819,36.418 295.591,43.124 300.551 C 45.138 302.041,49.283 305.084,52.334 307.313 C 55.385 309.542,59.218 312.357,60.853 313.568 C 62.488 314.780,63.976 315.771,64.159 315.771 C 64.363 315.771,64.493 311.030,64.493 303.601 C 64.493 288.891,64.735 287.930,68.429 287.930 C 72.032 287.930,72.228 288.928,72.238 307.352 C 72.248 324.011,72.167 325.242,70.982 326.520 C 69.137 328.511,69.165 328.526,55.154 318.224 C 48.200 313.110,38.674 306.136,33.351 302.261 L 29.075 299.148 28.899 312.195 L 28.722 325.241 27.687 326.321 C 26.230 327.841,24.016 327.859,22.519 326.361 L 21.479 325.322 21.577 307.123 L 21.674 288.924 22.506 288.251 C 23.541 287.413,24.907 287.392,26.150 288.196 M16.621 288.370 C 18.362 289.779,18.326 289.365,18.326 307.893 L 18.326 325.232 17.242 326.317 C 15.372 328.186,12.382 327.738,11.424 325.446 C 10.677 323.657,10.689 291.643,11.438 289.851 C 12.168 288.103,15.215 287.232,16.621 288.370 M292.159 293.215 C 292.159 293.408,292.714 294.155,293.392 294.874 L 294.626 296.182 294.614 307.474 C 294.605 316.845,294.515 318.883,294.086 319.451 C 293.801 319.827,293.568 320.501,293.568 320.948 C 293.568 321.527,293.365 321.762,292.863 321.762 C 292.476 321.762,292.159 321.921,292.159 322.115 C 292.159 322.345,285.323 322.463,272.335 322.456 C 251.981 322.444,251.278 322.399,251.278 321.107 C 251.278 320.886,251.040 320.705,250.749 320.705 C 250.399 320.705,250.220 320.355,250.220 319.668 C 250.220 319.098,250.062 318.534,249.868 318.414 C 249.646 318.277,249.515 314.299,249.515 307.644 C 249.515 300.845,249.641 297.093,249.868 297.093 C 250.062 297.093,250.220 296.537,250.220 295.859 C 250.220 294.998,250.380 294.626,250.749 294.626 C 251.040 294.626,251.278 294.419,251.278 294.167 C 251.278 292.889,251.690 292.863,272.141 292.863 C 285.220 292.863,292.159 292.985,292.159 293.215 M87.826 300.589 C 87.003 301.356,86.344 302.297,86.344 302.704 C 86.344 303.107,86.185 303.436,85.991 303.436 C 85.432 303.436,85.518 331.776,86.079 332.777 C 86.866 334.178,89.062 336.211,89.789 336.211 C 90.178 336.211,90.589 336.449,90.700 336.740 C 90.852 337.136,91.485 337.269,93.216 337.269 C 94.947 337.269,95.580 337.136,95.732 336.740 C 95.843 336.449,96.246 336.211,96.627 336.211 C 97.375 336.211,98.326 335.437,98.326 334.827 C 98.326 334.619,98.564 334.449,98.855 334.449 C 99.148 334.449,99.383 334.136,99.383 333.744 C 99.383 333.357,99.542 333.040,99.736 333.040 C 99.962 333.040,100.088 329.574,100.088 323.348 L 100.088 313.656 124.032 313.656 C 139.615 313.656,148.052 313.533,148.194 313.304 C 148.314 313.110,148.878 312.952,149.448 312.952 C 150.134 312.952,150.485 312.773,150.485 312.423 C 150.485 312.132,150.654 311.894,150.862 311.894 C 151.350 311.894,152.247 310.998,152.247 310.510 C 152.247 310.302,152.366 310.131,152.511 310.130 C 153.593 310.121,154.626 304.564,153.656 303.965 C 153.463 303.845,153.304 303.442,153.304 303.069 C 153.304 302.696,152.617 301.675,151.778 300.799 L 150.253 299.207 119.781 299.207 L 89.308 299.207 87.826 300.589 " stroke="none" fill="#515a59" fill-rule="evenodd"></path></g></svg>